HIERARCHY
ROOT Hips
{
	OFFSET 0.00000 0.00000 0.00000
	CHANNELS 6 Xposition Yposition Zposition Yrotation Zrotation Xrotation 
	JOINT Lumbar
	{
		OFFSET 0 0 0
		CHANNELS 3 Zrotation Xrotation Yrotation
		JOINT Neck
		{
			OFFSET 0.00 0.2701 0.00
			CHANNELS 3 Zrotation Xrotation Yrotation
			End Site
			{
				OFFSET 0.00 0.1379 0.00
			}
		}
		JOINT RightShoulder
		{
			OFFSET 0.0119 0.2289 0.1181
			CHANNELS 3 Zrotation Xrotation Yrotation
			JOINT RightElbow
			{
				OFFSET 0.00 -0.1475 0.00
				CHANNELS 2 Zrotation Yrotation
				JOINT RightWrist
				{
					OFFSET 0.00 -0.1605 0.00
					CHANNELS 2 Zrotation Xrotation
					End Site
					{
						OFFSET 0.0040 -0.1068 0.0006
					}
				}
			}
		}
		JOINT LeftShoulder
		{
			OFFSET 0.0119 0.2289 -0.1181
			CHANNELS 3 Zrotation Xrotation Yrotation
			JOINT LeftElbow
			{
				OFFSET 0.00 -0.1475 0.00
				CHANNELS 2 Zrotation Yrotation
				JOINT LeftWrist
				{
					OFFSET 0.00 -0.1605 0.00
					CHANNELS 2 Zrotation Xrotation
					End Site
					{
						OFFSET 0.0040 -0.1068 -0.0006
					}
				}
			}
		}
	}
	JOINT RightHip
	{
		OFFSET 0.0316 -0.0424 0.0458
		CHANNELS 3 Zrotation Xrotation Yrotation
		JOINT RightKnee
		{
			OFFSET 0.00 -0.2438 0.00
			CHANNELS 1 Zrotation
			JOINT RightAnkle
			{
				OFFSET 0.00 -0.2449 0.00
				CHANNELS 3 Zrotation Xrotation Yrotation
				End Site
				{
					OFFSET 0.1237 -0.0542 0.0051
				}
			}
		}
	}
	JOINT LeftHip
	{
		OFFSET 0.0316 -0.0424 -0.0458
		CHANNELS 3 Zrotation Xrotation Yrotation
		JOINT LeftKnee
		{
			OFFSET 0.00 -0.2438 0.00
			CHANNELS 1 Zrotation
			JOINT LeftAnkle
			{
				OFFSET 0.00 -0.2449 0.00
				CHANNELS 3 Zrotation Xrotation Yrotation
				End Site
				{
					OFFSET 0.1237 -0.0542 -0.0051
				}
			}
		}
	}
}
MOTION
Frames: 26
Frame Time: 0.02
0 0.57926 0 182.63113 0 -3.0812 0.71982 3.04044 -2.63672 -28.63258 2.79718 0.7781 -8.71214 -66.48625 -71.63629 22.39332 81.50069 -15.33013 -3.61654 3.96517 69.00168 56.52487 21.6524 -71.26633 -24.74276 2.15542 -3.88336 1.85887 4.65144 -6.38283 -1.75079 -3.69616 -7.33173 -2.10543 5.73577 -0.80419 -7.50323 6.10673 2.99085 1.84281
-4e-05 0.57926 -2e-05 182.63946 0 -3.08144 0.72097 3.03727 -2.65431 -28.6341 2.83073 0.77933 -8.75272 -66.54461 -71.66065 22.39765 81.36867 -15.35997 -3.64654 3.94805 68.926 56.62108 21.67573 -71.19042 -24.70811 2.15944 -3.88934 1.86116 4.64462 -6.38104 -1.74134 -3.72534 -7.33732 -2.10616 5.73759 -0.81662 -7.50589 6.1112 3.00743 1.85045
-8e-05 0.57926 -3e-05 182.64771 0 -3.08168 0.72215 3.03409 -2.67178 -28.6357 2.86409 0.78055 -8.79291 -66.60269 -71.68481 22.40194 81.23764 -15.38963 -3.67627 3.93094 68.85068 56.71672 21.69879 -71.11504 -24.67351 2.1634 -3.89529 1.86346 4.63784 -6.37924 -1.73192 -3.75432 -7.34289 -2.1069 5.73941 -0.82894 -7.50851 6.11563 3.02393 1.85804
-0.00011 0.57925 -5e-05 182.6557 0 -3.08194 0.72339 3.0308 -2.68902 -28.63767 2.89714 0.78181 -8.83181 -66.66037 -71.70822 22.40616 81.10933 -15.41885 -3.70519 3.91388 68.77595 56.81091 21.72103 -71.04132 -24.63858 2.16688 -3.90122 1.86577 4.63119 -6.37736 -1.72252 -3.78281 -7.34864 -2.10774 5.74126 -0.84096 -7.51102 6.11996 3.04032 1.86546
-0.00015 0.57925 -6e-05 182.66506 0 -3.08211 0.72424 3.02806 -2.70754 -28.63773 2.93198 0.78291 -8.87737 -66.72035 -71.73536 22.41081 80.96666 -15.4504 -3.73836 3.89677 68.69795 56.91268 21.74766 -70.9591 -24.60515 2.1726 -3.90725 1.86799 4.62389 -6.37589 -1.71298 -3.81393 -7.35369 -2.10808 5.74298 -0.85461 -7.51413 6.12484 3.05735 1.87372
-0.00019 0.57924 -8e-05 182.67151 0 -3.08247 0.72595 3.02417 -2.7233 -28.64181 2.96291 0.78433 -8.90889 -66.7753 -71.75473 22.4145 80.85448 -15.47698 -3.76253 3.87965 68.62707 56.99838 21.76496 -70.89474 -24.56875 2.17375 -3.91308 1.8704 4.61794 -6.37358 -1.70378 -3.83945 -7.36006 -2.10949 5.74497 -0.86477 -7.51599 6.12857 3.07299 1.8802
-0.00023 0.57924 -0.0001 182.66972 0 -3.08341 0.73004 3.01691 -2.73181 -28.65748 2.98421 0.78689 -8.90038 -66.81804 -71.75126 22.41585 80.82664 -15.49008 -3.76143 3.8631 68.5736 57.04001 21.7562 -70.88151 -24.52139 2.16027 -3.91848 1.87345 4.61585 -6.36849 -1.69499 -3.84966 -7.37154 -2.11398 5.74783 -0.86522 -7.51423 6.12904 3.08512 1.88163
-0.00026 0.57924 -0.00013 182.66505 0 -3.08452 0.73501 3.00853 -2.73748 -28.67712 3.00139 0.78973 -8.87791 -66.85542 -71.74021 22.41617 80.82951 -15.49813 -3.75133 3.84641 68.52767 57.06544 21.73809 -70.88601 -24.47148 2.1425 -3.92366 1.87668 4.61508 -6.36261 -1.68662 -3.85421 -7.38409 -2.11953 5.75095 -0.86214 -7.51125 6.12837 3.0958 1.88129
-0.0003 0.57924 -0.00015 182.66183 0 -3.08552 0.73959 3.00078 -2.74421 -28.69466 3.01973 0.79226 -8.86263 -66.89421 -71.73355 22.41677 80.81823 -15.50834 -3.74561 3.82937 68.47968 57.09813 21.72442 -70.88111 -24.42446 2.12804 -3.92884 1.87974 4.61363 -6.35738 -1.6784 -3.86129 -7.39518 -2.12453 5.75389 -0.8607 -7.50895 6.12826 3.10696 1.88184
-0.00033 0.57924 -0.00018 182.65798 0 -3.08668 0.74413 2.99251 -2.75188 -28.71349 3.04106 0.79555 -8.84378 -66.93733 -71.72292 22.41816 80.80783 -15.51909 -3.73862 3.81407 68.42592 57.13119 21.70988 -70.88164 -24.37014 2.108 -3.93441 1.88316 4.61261 -6.35098 -1.66877 -3.86857 -7.41036 -2.12983 5.75712 -0.85911 -7.50613 6.12797 3.11891 1.88201
-0.00037 0.57924 -0.0002 182.65479 0 -3.08754 0.74897 2.98509 -2.75693 -28.73051 3.0552 0.79733 -8.82907 -66.97015 -71.71871 22.41768 80.80282 -15.52756 -3.73219 3.79514 68.38595 57.15968 21.69499 -70.87539 -24.3304 2.09835 -3.93915 1.88588 4.61091 -6.34678 -1.66213 -3.87406 -7.41733 -2.13476 5.75979 -0.85699 -7.5041 6.12779 3.12884 1.88254
-0.00041 0.57923 -0.00021 182.65404 0 -3.0875 0.75447 2.98013 -2.75536 -28.74203 3.05032 0.79472 -8.82885 -66.97583 -71.7343 22.4121 80.80584 -15.53042 -3.7289 3.766 68.38221 57.17909 21.6811 -70.84329 -24.33167 2.1202 -3.94144 1.88673 4.60769 -6.34915 -1.66404 -3.87622 -7.40099 -2.13842 5.76091 -0.85418 -7.50458 6.12829 3.13363 1.88463
-0.00045 0.57923 -0.00022 182.65409 0 -3.08716 0.76025 2.97609 -2.75125 -28.7515 3.03841 0.7906 -8.83327 -66.97134 -71.7565 22.4047 80.81312 -15.53124 -3.72657 3.73327 68.39206 57.19449 21.66726 -70.80429 -24.34765 2.15235 -3.94295 1.88686 4.60361 -6.35369 -1.66887 -3.87673 -7.37644 -2.1417 5.76145 -0.85096 -7.50589 6.12896 3.1364 1.88712
-0.00049 0.57922 -0.00023 182.65384 0 -3.08695 0.76589 2.97175 -2.74833 -28.76158 3.02983 0.78724 -8.83587 -66.97147 -71.7756 22.39827 80.81796 -15.5334 -3.7242 3.70232 68.39569 57.21205 21.65364 -70.77027 -24.35686 2.17861 -3.94495 1.88727 4.59948 -6.35705 -1.67209 -3.87785 -7.35594 -2.14516 5.76223 -0.84798 -7.50681 6.12951 3.14001 1.88934
-0.00052 0.57922 -0.00024 182.65323 0 -3.08675 0.77159 2.9669 -2.74514 -28.77311 3.02049 0.78355 -8.83703 -66.97132 -71.79507 22.39123 80.82589 -15.53377 -3.71992 3.67069 68.39982 57.22782 21.6387 -70.72906 -24.36647 2.20976 -3.94635 1.88788 4.59726 -6.36125 -1.67651 -3.87935 -7.33416 -2.14859 5.76315 -0.84465 -7.50775 6.13012 3.14389 1.89189
-0.00057 0.57922 -0.00024 182.6536 0 -3.08647 0.77725 2.96333 -2.74199 -28.78111 3.01119 0.7802 -8.84214 -66.96954 -71.81513 22.385 80.82814 -15.53726 -3.71987 3.6397 68.40595 57.24633 21.62662 -70.70101 -24.37858 2.23333 -3.94886 1.88791 4.59084 -6.36417 -1.67914 -3.87975 -7.31306 -2.152 5.76362 -0.842 -7.50887 6.13073 3.14676 1.89386
-0.00061 0.57922 -0.00024 182.65659 0 -3.0861 0.78258 2.9632 -2.73924 -28.77964 3.00305 0.7781 -8.85981 -66.96474 -71.83775 22.38189 80.81222 -15.55152 -3.732 3.61071 68.41505 57.27553 21.62251 -70.71061 -24.39568 2.23258 -3.95426 1.88657 4.57301 -6.36351 -1.67586 -3.87746 -7.29597 -2.15529 5.76301 -0.84146 -7.51024 6.1307 3.14736 1.89422
-0.00066 0.57922 -0.00023 182.66054 0 -3.08567 0.78788 2.96431 -2.73669 -28.77471 2.99536 0.7764 -8.88081 -66.95887 -71.86025 22.37958 80.79057 -15.56875 -3.74826 3.58263 68.42549 57.3073 21.62132 -70.73372 -24.41452 2.22405 -3.96086 1.88468 4.55101 -6.36143 -1.67072 -3.87416 -7.27983 -2.15858 5.76197 -0.84162 -7.51178 6.13076 3.14703 1.89398
-0.00071 0.57922 -0.00022 182.66403 0 -3.08525 0.79331 2.96478 -2.73425 -28.77153 2.98794 0.77457 -8.89854 -66.95418 -71.88121 22.3766 80.77227 -15.58349 -3.76219 3.55454 68.43481 57.33656 21.61876 -70.75078 -24.43143 2.21967 -3.96715 1.88303 4.5309 -6.35966 -1.66664 -3.87139 -7.26316 -2.16196 5.76114 -0.84139 -7.51325 6.13117 3.14715 1.89396
-0.00076 0.57922 -0.00021 182.66769 0 -3.08487 0.7983 2.96563 -2.73087 -28.76759 2.97825 0.77248 -8.92394 -66.94622 -71.90928 22.3748 80.75085 -15.60277 -3.77803 3.52454 68.44689 57.37135 21.61632 -70.76713 -24.45351 2.21299 -3.97245 1.88142 4.51067 -6.35927 -1.66179 -3.86827 -7.24659 -2.16494 5.76026 -0.84142 -7.51468 6.12998 3.14707 1.89416
-0.00081 0.57922 -0.0002 182.67118 0 -3.08441 0.80417 2.96595 -2.72955 -28.76439 2.97351 0.77103 -8.93399 -66.94493 -71.92222 22.37082 80.73469 -15.61361 -3.79091 3.49887 68.45319 57.39525 21.61442 -70.78838 -24.46521 2.20918 -3.98007 1.8796 4.48982 -6.35577 -1.658 -3.86565 -7.2302 -2.16877 5.75936 -0.8411 -7.51625 6.13211 3.14721 1.89378
-0.00089 0.57921 -0.00019 182.6741 0 -3.08381 0.81261 2.96461 -2.7337 -28.76445 2.98207 0.77131 -8.90191 -66.96246 -71.89514 22.3601 80.73279 -15.59806 -3.79405 3.48405 68.44452 57.38914 21.61265 -70.81891 -24.4462 2.21455 -3.99423 1.87724 4.46758 -6.34296 -1.65821 -3.86476 -7.21346 -2.17491 5.75852 -0.83945 -7.51801 6.14368 3.14819 1.89182
-0.00098 0.57921 -0.00018 182.6768 0 -3.08313 0.8219 2.96267 -2.73998 -28.76528 2.99569 0.77221 -8.85414 -66.98676 -71.8525 22.34732 80.73664 -15.57436 -3.79417 3.47358 68.4296 57.37202 21.61157 -70.85419 -24.41688 2.22312 -4.01062 1.87471 4.44502 -6.32725 -1.65941 -3.8644 -7.19703 -2.1819 5.75767 -0.83747 -7.51994 6.15853 3.14941 1.88933
-0.00106 0.5792 -0.00017 182.67952 0 -3.08247 0.83073 2.96093 -2.7454 -28.76559 3.00717 0.7728 -8.81276 -67.0079 -71.81576 22.33573 80.73898 -15.55598 -3.79602 3.46189 68.41668 57.35934 21.61043 -70.88783 -24.39329 2.23059 -4.02573 1.87232 4.4231 -6.31355 -1.65973 -3.86374 -7.18089 -2.18853 5.75679 -0.83576 -7.52187 6.17169 3.15051 1.88716
-0.00114 0.5792 -0.00016 182.68259 0 -3.0819 0.83993 2.95955 -2.7503 -28.76667 3.01792 0.77357 -8.77433 -67.02934 -71.78382 22.32283 80.73661 -15.53096 -3.79648 3.44767 68.40764 57.34854 21.60778 -70.91941 -24.36547 2.23637 -4.04202 1.86964 4.39891 -6.2969 -1.66179 -3.8633 -7.16293 -2.19507 5.756 -0.83356 -7.52342 6.18572 3.15163 1.88462
-0.00123 0.5792 -0.00016 182.68487 0 -3.08111 0.84847 2.95724 -2.75686 -28.76616 3.03146 0.77408 -8.72635 -67.05175 -71.73839 22.31248 80.74532 -15.51768 -3.79907 3.43896 68.38865 57.3319 21.6091 -70.95664 -24.34384 2.24647 -4.05636 1.86753 4.37947 -6.28569 -1.66048 -3.86255 -7.14884 -2.20197 5.75505 -0.83228 -7.52586 6.19872 3.15279 1.88277
